<svg width="38" height="38" viewBox="0 0 38 38" fill="none" xmlns="http://www.w3.org/2000/svg">
<g clip-path="url(#clip0_157_511)">
<path d="M38 19C38 28.4837 31.0516 36.3442 21.9688 37.7692V24.4922H26.3959L27.2383 19H21.9688V15.436C21.9688 13.9331 22.705 12.4688 25.0652 12.4688H27.4609V7.79297C27.4609 7.79297 25.2863 7.42188 23.2075 7.42188C18.8679 7.42188 16.0312 10.0522 16.0312 14.8141V19H11.207V24.4922H16.0312V37.7692C6.94836 36.3442 0 28.4837 0 19C0 8.50695 8.50695 0 19 0C29.493 0 38 8.50695 38 19Z" fill="#1877F2"/>
<path d="M26.3959 24.4922L27.2383 19H21.9688V15.4359C21.9688 13.9334 22.7049 12.4688 25.0651 12.4688H27.4609V7.79297C27.4609 7.79297 25.2866 7.42188 23.2078 7.42188C18.8678 7.42188 16.0312 10.0522 16.0312 14.8141V19H11.207V24.4922H16.0312V37.7691C16.9986 37.9209 17.99 38 19 38C20.01 38 21.0014 37.9209 21.9688 37.7691V24.4922H26.3959Z" fill="white"/>
</g>
<defs>
<clipPath id="clip0_157_511">
<rect width="38" height="38" fill="white"/>
</clipPath>
</defs>
</svg>
