<svg width="38" height="38" viewBox="0 0 38 38" fill="none" xmlns="http://www.w3.org/2000/svg">
<circle cx="19" cy="19" r="19" fill="#E8EDF1"/>
<circle cx="19" cy="19" r="19" fill="url(#paint0_linear_157_508)"/>
<path d="M18.7575 15.9132C17.1676 15.9132 15.8702 17.1908 15.8702 18.7564C15.8702 20.3218 17.1676 21.5994 18.7575 21.5994C20.3473 21.5994 21.6447 20.3218 21.6447 18.7564C21.6447 17.1908 20.3473 15.9132 18.7575 15.9132ZM27.4171 18.7564C27.4171 17.579 27.4279 16.4123 27.3607 15.2371C27.2935 13.8721 26.9774 12.6606 25.9636 11.6625C24.9478 10.6622 23.7197 10.3529 22.3335 10.2868C21.1378 10.2207 19.9531 10.2313 18.7596 10.2313C17.564 10.2313 16.3792 10.2207 15.1857 10.2868C13.7996 10.3529 12.5692 10.6643 11.5556 11.6625C10.5397 12.6628 10.2257 13.8721 10.1585 15.2371C10.0914 16.4145 10.1022 17.5811 10.1022 18.7564C10.1022 19.9316 10.0914 21.1003 10.1585 22.2755C10.2257 23.6406 10.5419 24.852 11.5556 25.8502C12.5714 26.8505 13.7996 27.1597 15.1857 27.2259C16.3814 27.292 17.5662 27.2814 18.7596 27.2814C19.9553 27.2814 21.14 27.292 22.3335 27.2259C23.7197 27.1597 24.95 26.8484 25.9636 25.8502C26.9795 24.8499 27.2935 23.6406 27.3607 22.2755C27.43 21.1003 27.4171 19.9337 27.4171 18.7564ZM18.7575 23.1308C16.299 23.1308 14.315 21.1771 14.315 18.7564C14.315 16.3355 16.299 14.3818 18.7575 14.3818C21.2158 14.3818 23.1999 16.3355 23.1999 18.7564C23.1999 21.1771 21.2158 23.1308 18.7575 23.1308ZM23.3818 15.2243C22.8079 15.2243 22.3443 14.7679 22.3443 14.2027C22.3443 13.6375 22.8079 13.1811 23.3818 13.1811C23.9558 13.1811 24.4193 13.6375 24.4193 14.2027C24.4195 14.3369 24.3927 14.4699 24.3407 14.5939C24.2886 14.7179 24.2122 14.8306 24.1158 14.9255C24.0194 15.0204 23.905 15.0957 23.779 15.1469C23.6531 15.1982 23.5181 15.2245 23.3818 15.2243Z" fill="white"/>
<defs>
<linearGradient id="paint0_linear_157_508" x1="5.56808" y1="32.4319" x2="32.4319" y2="5.56808" gradientUnits="userSpaceOnUse">
<stop stop-color="#FAAD4F"/>
<stop offset="0.35" stop-color="#DD2A7B"/>
<stop offset="0.62" stop-color="#9537B0"/>
<stop offset="1" stop-color="#515BD4"/>
</linearGradient>
</defs>
</svg>
