<svg width="200" height="102" viewBox="0 0 200 102" fill="none" xmlns="http://www.w3.org/2000/svg">
<g clip-path="url(#clip0_157_283)">
<path d="M105.777 12.4428C104.811 16.0203 102.873 19.0679 100.796 22.1155C100.113 23.119 99.3461 24.1324 98.7459 25.1875C97.8849 25.0816 97.0183 25.0259 96.1506 25.0207C98.9252 21.0652 101.911 17.2619 103.443 12.6292C103.784 11.5962 104.307 9.91785 103.722 8.91182C103.503 8.56836 103.156 8.32337 102.756 8.22967C101.51 7.87633 99.7844 8.19287 98.5217 8.45051C89.2541 10.3522 81.1022 16.0915 72.9952 20.5819C72.6017 20.0322 72.273 19.3893 71.9268 18.8053C78.2604 15.0658 96.1805 4.3601 103.446 6.10963C103.892 6.19777 104.315 6.37357 104.69 6.62654C105.065 6.8795 105.385 7.20442 105.63 7.58188C106.504 9.00015 106.19 10.919 105.777 12.4428Z" fill="#2B2A2A"/>
<path d="M26.1413 87.3509C19.8524 90.3297 13.0804 94.6827 5.99209 95.3869C4.41801 95.5439 2.60982 95.4703 1.33711 94.4275C0.94436 94.0878 0.624913 93.6739 0.397723 93.2102C0.170534 92.7465 0.040237 92.2426 0.0145823 91.7284C-0.632981 83.8273 14.2834 67.927 19.3942 62.0625L21.155 63.4391C16.4054 68.457 2.46039 84.1095 2.68953 90.6462C2.6847 90.9668 2.74725 91.2849 2.87327 91.5805C2.99929 91.8761 3.18605 92.1428 3.42178 92.3639C4.20881 93.0485 5.44167 93.1 6.43045 93.019C10.5275 92.6829 15.5312 90.472 19.175 88.5777C21.4888 87.3754 23.7602 86.0136 26.1338 84.9388C26.1413 85.7486 26.094 86.5632 26.1413 87.3509Z" fill="#2B2A2A"/>
<path d="M181.933 41.4974C182.633 41.0066 186.237 34.2564 186.451 33.3804C186.471 33.2832 186.471 33.1831 186.451 33.0859C186.474 33.1085 186.495 33.1322 186.516 33.1571C188.122 34.9974 188.922 41.9587 190.942 42.712C193.313 43.6003 197.686 43.5119 200 44.3683C199.897 44.6206 199.724 44.8397 199.502 45.0014C197.965 46.3485 196.264 47.5066 194.67 48.8047C193.923 49.4181 193.113 50.3775 192.314 50.8683C192.521 51.3443 193.602 59.1914 193.654 60.0625C193.666 60.2712 193.634 60.4802 193.559 60.6759C193.559 60.7029 193.537 60.7274 193.527 60.752C193.123 60.1606 187.649 56.7254 186.787 56.399C186.652 56.1335 186.438 55.9146 186.175 55.7709C184.431 54.7894 177.838 59.1006 175.657 59.7116C175.727 59.6437 175.791 59.5698 175.848 59.4908C176.127 59.108 178.13 52.1295 178.294 51.3639C178.412 50.9241 178.444 50.4661 178.389 50.0144C178.17 48.9715 172.359 43.2126 171.266 42.5721C172.907 42.4642 180.698 42.3636 181.607 41.917C181.838 41.7992 181.846 41.733 181.933 41.4974Z" fill="#2B2A2A"/>
<path d="M185.275 60.2842C183.642 62.738 181.716 65.0494 179.427 66.9314C168.469 75.9441 147.196 81.5975 133.279 84.412C122.529 86.5835 111.473 88.1466 100.487 88.338C99.6103 91.6775 98.5568 94.5656 95.3613 96.4354C92.4298 98.153 88.9629 98.3542 85.7176 97.5224C82.2531 96.6366 79.344 94.8232 76.2084 93.2038C73.2196 91.6603 70.1038 90.2593 67.0279 88.8606C65.262 88.0607 63.4638 87.143 61.6282 86.5222C58.485 88.9596 55.3601 91.4199 52.2535 93.9031C47.5611 97.6205 42.1814 102.776 35.6061 101.9C32.8664 101.537 30.2712 99.9369 28.605 97.7702C26.2588 94.73 26.2463 90.9978 26.1417 87.3516C26.0894 86.5639 26.1417 85.7493 26.1417 84.9592C26.326 82.9176 26.2463 80.8221 26.3509 78.7732C26.4904 76.3996 26.6141 74.0277 26.722 71.6574C26.7694 70.4992 26.9163 69.2453 26.7544 68.0945C26.6075 67.0566 22.214 64.2569 21.163 63.4545L19.4021 62.0779C18.5478 61.2608 17.3374 60.5762 16.356 59.9064C11.9103 56.8686 6.20424 53.6689 4.5654 48.2142C4.51559 48.0474 4.47076 47.8805 4.42842 47.7112C4.38608 47.5419 4.35121 47.375 4.31883 47.2033C4.28645 47.0315 4.25656 46.8622 4.23414 46.6904C4.21173 46.5187 4.18932 46.3469 4.17437 46.1752C4.15943 46.0034 4.14946 45.8292 4.14199 45.655C4.13452 45.4807 4.14199 45.309 4.14199 45.1372C4.14199 44.9655 4.142 44.7912 4.16192 44.617C4.18185 44.4428 4.18683 44.271 4.20675 44.0993C4.22668 43.9275 4.25158 43.7558 4.27897 43.584C4.30637 43.4122 4.33875 43.2429 4.37611 43.0736C4.41347 42.9043 4.45332 42.7374 4.49815 42.5681C4.54298 42.3988 4.5928 42.2344 4.6451 42.0774C4.69741 41.9203 4.75719 41.7486 4.81945 41.5866C4.88172 41.4247 4.94647 41.2652 5.01621 41.0959C5.08594 40.9266 5.15818 40.7794 5.23788 40.6248C5.31758 40.4702 5.39479 40.3156 5.48694 40.1635C8.75215 34.3186 16.4009 33.6389 22.3336 32.3335C26.7719 31.352 31.3148 30.4687 35.6783 29.2099C36.7169 25.9759 38.0519 22.8302 39.1652 19.6133C41.1278 13.8985 42.7467 5.13616 48.261 1.77452C50.6943 0.287547 53.8276 -0.416675 56.642 0.26056C62.2309 1.60522 65.2471 7.55311 67.8847 12.0386C69.2263 14.3091 70.5853 16.5674 71.9618 18.8134C72.308 19.3974 72.6368 20.0403 73.0303 20.5899C73.8746 21.9517 74.6542 23.5344 75.6305 24.7883C77.1772 25.0116 78.8086 24.9551 80.3627 24.9625L86.7337 25.0042C89.5357 25.0312 93.5232 25.3404 96.1707 25.0287C97.0384 25.0339 97.905 25.0896 98.766 25.1956C102.171 25.7698 103.889 26.4421 106.577 28.5597C110.908 28.1573 115.241 27.7377 119.588 27.5561C135.426 26.8887 152.75 28.172 167.712 33.6095C172.165 35.229 176.735 37.2165 180.414 40.215C180.899 40.6125 181.425 41.1965 181.948 41.5057C181.861 41.7388 181.851 41.805 181.609 41.9253C180.703 42.3718 172.912 42.4725 171.268 42.5804C172.362 43.2208 178.172 48.9798 178.394 50.0226C178.45 50.4743 178.417 50.9323 178.299 51.3722C178.135 52.1353 176.13 59.1162 175.853 59.499C175.797 59.5778 175.733 59.651 175.662 59.7174C177.843 59.1089 184.444 54.7927 186.177 55.7914C186.438 55.9289 186.651 56.1411 186.787 56.3999C187.049 57.7078 185.975 59.2291 185.275 60.2842Z" fill="#FCDA3D"/>
<path d="M36.6019 30.3206C38.0531 26.4731 39.4778 22.6158 40.8758 18.7487C42.4972 14.1406 43.3366 8.73004 46.5844 4.89483C48.3053 2.86992 50.7653 1.59288 53.4336 1.33934C60.6365 0.77989 64.2479 8.49694 67.2367 13.5934C68.9618 16.5673 70.7252 19.5208 72.5268 22.4539C73.1544 23.4943 73.9589 25.4671 74.9377 26.1468C75.655 26.6375 77.6624 26.3602 78.5317 26.3602C81.6101 26.3602 84.686 26.4584 87.7644 26.4633C93.1218 26.4756 100.997 25.6364 105.326 29.3244C107.069 30.7966 108.379 33.2258 108.514 35.498C108.728 39.1492 105.744 42.8593 103.423 45.4725C103.48 44.1549 103.63 42.7047 102.925 41.5146C102.267 40.3908 101.169 40.0424 99.976 39.7406C98.5239 39.7749 97.0893 39.8093 96.0109 40.9184C94.5863 42.3906 94.7058 44.7879 94.0184 46.5939C94.0832 44.9818 94.3173 43.1856 93.0919 41.9097C92.6771 41.5117 92.2014 41.1805 91.6822 40.9282C92.3746 40.0743 93.0844 39.2277 93.7544 38.3542C88.4618 38.3714 83.1617 38.4499 77.8741 38.3345C75.5703 38.283 73.0299 38.3983 70.7908 37.8438C69.4447 37.5187 68.2152 36.8354 67.2367 35.8685C65.2442 33.935 63.837 31.2064 62.4148 28.8557C59.8619 24.6328 57.2318 19.8038 54.4149 15.8091C52.8134 21.4409 50.9011 26.9824 48.6865 32.4087C47.9393 34.2711 47.2892 36.3347 46.1958 38.0229C45.5599 39.0476 44.6659 39.8928 43.6006 40.4767C40.9506 41.9121 37.6729 42.3955 34.7489 43.0531C31.6472 43.7745 28.5422 44.4771 25.4339 45.1609C23.6581 45.5535 21.83 45.8774 20.0766 46.3559C21.3518 47.4895 22.8935 48.3606 24.2957 49.3347C27.7104 51.7075 37.0776 58.2443 39.0627 61.1716C39.8263 62.308 40.2516 63.6323 40.2906 64.9946C40.4226 67.5906 40.2084 70.2481 40.1038 72.8466C39.917 77.5529 39.6878 82.2665 39.5658 86.9753C43.5159 84.048 47.2444 80.8188 51.1771 77.8571C53.6204 76.0168 56.0961 73.9311 59.0624 72.9742C60.0194 72.7044 61.026 72.6524 62.0063 72.822C64.2031 73.141 66.3724 74.1937 68.3848 75.0844C72.9601 77.1087 77.3386 79.4717 81.889 81.5549C83.2788 82.1929 84.6686 82.9094 86.1057 83.4345C84.021 74.6673 82.422 65.8264 80.6039 57.0027C81.7215 56.9036 82.8117 56.606 83.8218 56.1242C83.9214 59.1178 83.8591 64.5357 86.2402 66.7833C86.6421 67.1418 87.0952 67.4403 87.5851 67.6692C88.0235 67.7648 88.4718 67.8336 88.9151 67.9023C90.945 68.2163 92.3671 68.0004 94.0383 66.803C95.0146 71.497 96.4443 76.1788 97.6721 80.8188C98.1479 82.61 98.9175 84.6246 99.0445 86.4624C99.1631 88.1888 98.8537 89.9177 98.1429 91.5C98.0806 91.6349 98.0159 91.7674 97.9461 91.8999C97.8764 92.0324 97.8041 92.16 97.7294 92.2876C97.6547 92.4152 97.575 92.533 97.4928 92.6655C97.4106 92.798 97.326 92.9109 97.2438 93.0336C97.1616 93.1563 97.0644 93.279 96.9698 93.3869C96.8751 93.4949 96.7805 93.6151 96.6809 93.7255C96.5813 93.836 96.4791 93.9439 96.3745 94.0494C96.2699 94.1549 96.1603 94.2605 96.0508 94.3611C95.9412 94.4617 95.8266 94.5574 95.712 94.6531C95.5975 94.7488 95.4804 94.842 95.3608 94.9303C95.2413 95.0187 95.1118 95.107 94.9947 95.1904C94.8777 95.2739 94.7457 95.3524 94.6161 95.4358C94.4866 95.5192 94.3671 95.5879 94.2276 95.6591C94.0881 95.7303 93.9611 95.7965 93.8266 95.8603C93.6921 95.9241 93.5526 95.9879 93.4157 96.0443C93.2787 96.1008 93.1367 96.1572 92.9972 96.2087C90.9155 96.934 88.6627 97.0373 86.5216 96.5056C82.0783 95.4751 78.1705 92.7833 74.1083 90.8228C69.9664 88.8205 65.7099 87.0317 61.5232 85.1178C59.827 86.1263 58.2579 87.4145 56.6938 88.6119C54.9504 89.9345 53.207 91.235 51.5208 92.6189C47.8372 95.6591 44.2706 99.3863 39.4437 100.537C38.2167 100.853 36.9368 100.915 35.6842 100.721C34.4315 100.527 33.233 100.08 32.1636 99.4084C26.1413 95.7622 27.4912 87.6427 27.7228 81.7537C27.8573 78.37 27.8922 74.9862 28.0192 71.6025C28.0665 70.3462 28.5522 68.393 28.1114 67.2226C27.8399 66.4987 26.3879 65.7847 25.7627 65.316C23.4639 63.5812 21.2572 61.7679 18.8936 60.1141C14.1987 56.8285 7.24488 53.4055 5.79534 47.4257C5.49301 46.2236 5.43508 44.9745 5.62487 43.7503C5.81466 42.5261 6.24842 41.351 6.90118 40.2926C8.02445 38.5358 9.75046 37.3285 11.6334 36.4623C15.3693 34.7447 19.6034 34.227 23.5884 33.324C27.937 32.3474 32.2508 31.2678 36.6019 30.3206Z" fill="#2B2A2A"/>
<path d="M87.5882 67.6696C87.9643 69.5124 88.5471 71.3502 89.0178 73.1881L92.0589 85.1035C92.3901 86.4138 92.7289 88.0259 91.9543 89.2479C91.1797 90.4699 89.6131 90.6269 88.2532 90.3864C85.0154 89.8147 81.1026 87.3192 78.1138 85.8445C74.4095 84.0451 70.6943 82.2662 66.9683 80.5076C65.2946 79.7372 63.322 78.6501 61.4889 78.3778C60.8582 78.2907 60.2156 78.397 59.6483 78.682C58.3034 79.293 57.073 80.3015 55.8875 81.1652C52.829 83.4145 49.8402 85.748 46.9212 88.1658C44.4306 90.2098 41.0209 93.564 37.8454 94.3002C37.0359 94.4867 36.2837 94.4842 35.5664 94.0254C34.5702 93.3825 34.1692 92.1188 33.9774 91.0195C33.3996 87.7511 33.965 84.0508 34.1244 80.7407C34.2705 77.2221 34.3975 73.705 34.5054 70.1896C34.5752 68.4155 34.9836 65.9324 34.3236 64.2761C33.8255 63.032 31.7035 61.7463 30.645 60.9414C27.3424 58.3846 23.985 55.9014 20.5728 53.4918C18.401 51.973 15.883 50.6185 13.9528 48.8101C13.0237 47.939 11.9926 46.7833 11.761 45.5049C11.497 44.0326 12.7573 42.9726 13.9378 42.3469C16.8992 40.7814 20.6625 40.4722 23.9227 39.7606L34.9239 37.2578C36.6673 36.8554 38.9811 36.5536 40.5502 35.685C41.1047 35.3666 41.553 34.8959 41.8403 34.3305C42.6099 32.9269 43.0856 31.1995 43.6535 29.7003C44.9287 26.265 46.2139 22.8298 47.3322 19.3552C48.3708 16.1237 49.0557 12.2394 51.0507 9.447C51.626 8.64217 52.3558 7.8766 53.3894 7.72937C54.7219 7.52817 55.9497 8.4017 56.819 9.29977C58.6969 11.2456 59.8501 13.9251 61.2199 16.2218C63.312 19.7258 65.4689 23.2052 67.5237 26.7312C68.5199 28.4219 69.4913 30.721 71.0579 31.9454C71.4739 32.2738 71.9737 32.4826 72.5025 32.5491C74.4551 32.8558 76.5946 32.6987 78.5721 32.6963L89.9443 32.7748C92.6043 32.7748 95.466 32.5687 98.0862 33.0202C99.1115 33.1631 100.088 33.5431 100.935 34.1293C101.215 34.3126 101.454 34.5512 101.635 34.83C101.816 35.1088 101.937 35.4216 101.989 35.7488C102.201 37.3658 100.918 38.6 99.9766 39.768C98.5246 39.8024 97.0899 39.8367 96.0115 40.9458C94.5869 42.4181 94.7064 44.8154 94.019 46.6213C94.0838 45.0092 94.3179 43.2131 93.0925 41.9371C92.6777 41.5392 92.202 41.208 91.6828 40.9556C92.3752 40.1017 93.085 39.2552 93.755 38.3816C88.4624 38.3988 83.1623 38.4773 77.8747 38.362C75.5709 38.3105 73.0305 38.4258 70.7914 37.8713C69.4423 37.5385 68.2125 36.8457 67.2373 35.869C65.2448 33.9354 63.8376 31.2069 62.4154 28.8562C59.8625 24.6333 57.2324 19.8043 54.4155 15.8096C52.8141 21.4414 50.9017 26.9828 48.6871 32.4092C47.9399 34.2716 47.2898 36.3352 46.1964 38.0234C45.5605 39.048 44.6665 39.8933 43.6012 40.4771C40.9512 41.9126 37.6735 42.396 34.7495 43.0536C31.6478 43.775 28.5429 44.4776 25.4345 45.1613C23.6587 45.5539 21.8306 45.8778 20.0772 46.3563C21.3524 47.49 22.8941 48.361 24.2963 49.3352C27.711 51.708 37.0782 58.2447 39.0633 61.1721C39.8269 62.3084 40.2522 63.6327 40.2912 64.995C40.4232 67.5911 40.209 70.2485 40.1044 72.847C39.9176 77.5533 39.6884 82.267 39.5664 86.9757C43.5165 84.0484 47.245 80.8193 51.1777 77.8576C53.621 76.0173 56.0967 73.9316 59.063 72.9746C60.02 72.7049 61.0266 72.6528 62.0069 72.8225C64.2037 73.1415 66.373 74.1941 68.3854 75.0848C72.9607 77.1092 77.3393 79.4722 81.8896 81.5554C83.2794 82.1934 84.6692 82.9099 86.1063 83.435C84.0216 74.6677 82.4226 65.8268 80.6045 57.0032C81.7221 56.9041 82.8123 56.6064 83.8224 56.1247C83.922 59.1183 83.8597 64.5362 86.2408 66.7838C86.6435 67.1425 87.0975 67.4409 87.5882 67.6696Z" fill="#FCDA3D"/>
<path d="M54.4179 15.8047C57.2348 19.7994 59.8649 24.6382 62.4178 28.8513C63.8399 31.2069 65.2446 33.9305 67.2371 35.869C68.2126 36.8427 69.4414 37.5328 70.7888 37.8639C73.0303 38.4086 75.5683 38.2933 77.8721 38.3547C83.1597 38.47 88.4598 38.3915 93.7524 38.3743C93.0824 39.2478 92.3726 40.0919 91.6802 40.9483C92.1994 41.2006 92.6751 41.5318 93.0899 41.9298C94.3153 43.2057 94.0861 45.0019 94.0164 46.614C94.7038 44.808 94.5842 42.4058 96.0089 40.9385C97.0873 39.8294 98.5219 39.795 99.974 39.7607C101.167 40.0674 102.265 40.4109 102.923 41.5347C103.62 42.7248 103.471 44.175 103.421 45.4926L103.172 49.0089C105.912 46.9477 109.565 45.527 113.075 46.003C114.948 46.2484 116.524 47.0851 118.038 48.1549C118.768 47.7476 119.623 47.4826 120.317 47.063C120.317 47.0409 120.34 47.0213 120.35 46.9992C121.423 44.7908 120.477 42.2365 123.772 41.0317C125.134 40.541 126.94 40.5017 128.275 41.1053C128.737 41.3035 129.155 41.5907 129.503 41.9501C129.851 42.3096 130.123 42.734 130.302 43.1984C130.668 44.1799 130.666 45.922 130.213 46.879L130.175 46.9526L130.143 47.0164C130.626 47.1293 131.221 47.2103 131.62 47.5219C131.621 47.5006 131.621 47.4793 131.62 47.4581C131.647 46.9453 131.371 46.3858 131.221 45.8926C130.989 45.0357 131.001 44.1324 131.256 43.2817C131.511 42.4311 131.999 41.6662 132.666 41.071L132.848 40.9139C132.91 40.8649 132.972 40.8133 133.037 40.7667L133.236 40.6293C133.301 40.5851 133.371 40.5434 133.441 40.5017C133.51 40.46 133.578 40.4207 133.65 40.3839C133.722 40.3471 133.792 40.3103 133.866 40.2759C133.941 40.2416 134.013 40.2097 134.088 40.1803C134.163 40.1508 134.238 40.1214 134.312 40.0944C134.387 40.0674 134.464 40.0428 134.541 40.0208C134.619 39.9987 134.698 39.9766 134.776 39.957C134.853 39.9373 134.932 39.9202 135.012 39.9054C135.092 39.8907 135.172 39.876 135.261 39.8662L135.51 39.8367C135.59 39.8367 135.672 39.8367 135.759 39.822C135.846 39.8073 135.921 39.822 136.008 39.822C136.096 39.822 136.17 39.822 136.257 39.822C136.414 39.822 136.569 39.8514 136.723 39.876C136.878 39.902 137.031 39.9355 137.181 39.9766C137.333 40.0163 137.481 40.0638 137.627 40.1189C137.774 40.1727 137.918 40.2341 138.058 40.3029C138.198 40.3718 138.335 40.448 138.467 40.5311C138.599 40.6121 138.716 40.7005 138.853 40.7937C138.99 40.8869 139.102 40.99 139.209 41.0955C139.322 41.2013 139.43 41.3127 139.533 41.4292C139.978 41.9367 140.317 42.5266 140.529 43.1644C140.74 43.8023 140.821 44.4753 140.765 45.1442C140.749 45.5996 140.665 46.0501 140.516 46.4815C140.267 47.0876 139.548 47.8482 139.827 48.5083C140.091 48.6138 140.143 48.6482 140.419 48.523C141.443 48.0617 142.337 47.279 143.373 46.8054C146.297 45.473 150.76 45.0878 153.834 46.1085C155.044 46.5134 156.287 47.2912 156.865 48.4592C157.002 48.7365 157.114 49.0285 157.234 49.318L157.283 49.2886C158.207 48.7021 158.994 47.9979 160.001 47.5145C161.854 46.6263 164.92 46.533 166.92 46.96C168.646 47.3256 170.349 48.1132 171.333 49.6174C171.986 50.5989 172.444 51.9877 172.185 53.1753C172.018 53.9434 171.455 54.8586 170.765 55.2708C170.703 55.3076 170.68 55.3175 170.618 55.3493C171.749 56.0683 172.556 57.4596 172.837 58.7355C173.011 59.6134 173.004 60.5165 172.819 61.392C172.634 62.2674 172.274 63.0978 171.759 63.8344C171.103 64.7975 170.256 65.62 169.269 66.2525C168.282 66.885 167.175 67.3144 166.015 67.515C163.485 67.9798 160.869 67.6216 158.564 66.4943C157.724 66.0722 156.885 65.4809 156.011 65.1472C155.786 65.8833 154.541 66.59 153.896 66.9262C151.386 68.234 148.292 68.2021 145.627 67.3727C144.33 66.9895 143.115 66.3749 142.043 65.5594C141.558 65.1815 141.067 64.708 140.521 64.4258C140.666 64.9533 140.397 65.7753 140.118 66.2342C139.592 67.0979 138.586 67.6009 137.627 67.8218C136.193 68.1481 133.685 68.3935 132.429 67.5617C131.632 67.0366 131.667 66.1262 131.074 65.4907C131.089 65.9667 130.773 66.4599 130.452 66.801C129.615 67.6966 128.168 67.9837 126.985 68.0279C125.608 68.0671 123.759 67.8512 122.706 66.882C121.423 65.7017 121.608 64.0773 120.656 62.8382C120.711 63.4222 120.113 64.0773 119.755 64.4969C118.061 66.4943 115.884 67.6868 113.242 67.915C113.042 67.9297 112.843 67.9395 112.646 67.9469C112.45 67.9543 112.248 67.9469 112.049 67.9469C111.849 67.9469 111.653 67.9346 111.453 67.9199C111.254 67.9052 111.057 67.8905 110.861 67.8659C110.664 67.8414 110.464 67.8169 110.268 67.785C110.071 67.7531 109.877 67.7138 109.682 67.6721C109.488 67.6304 109.296 67.5862 109.105 67.5347C108.913 67.4831 108.721 67.4292 108.532 67.3678C108.342 67.3065 108.153 67.2451 107.969 67.174C107.785 67.1028 107.598 67.0341 107.416 66.9556C107.234 66.8771 107.052 66.7961 106.873 66.7102C106.694 66.6243 106.519 66.5336 106.345 66.4403C106.171 66.3471 105.999 66.2465 105.832 66.1434C105.665 66.0403 105.496 65.9324 105.334 65.822C105.172 65.7115 105.01 65.5962 104.851 65.476C104.691 65.3557 104.537 65.2306 104.385 65.1079L104.333 65.0637C103.785 66.2906 103.164 67.1985 101.842 67.704C100.498 68.1785 99.02 68.1249 97.715 67.5543C96.238 66.8992 95.6203 65.714 95.0898 64.2982C94.9464 65.2018 94.5936 66.0608 94.0587 66.8084C92.3875 68.0058 90.9654 68.2217 88.9355 67.9076C88.4922 67.8389 88.0439 67.7702 87.6055 67.6745C87.1156 67.4456 86.6625 67.1472 86.2606 66.7887C83.8795 64.5411 83.9418 59.1232 83.8422 56.1296C82.8321 56.6114 81.7419 56.909 80.6243 57.0081C82.4424 65.8416 84.0414 74.6751 86.1261 83.4399C84.689 82.9148 83.2992 82.1983 81.9094 81.5603C77.3591 79.4771 72.9805 77.1141 68.4053 75.0898C66.3928 74.1991 64.2235 73.1464 62.0268 72.8274C61.049 72.6581 60.0451 72.7093 59.0903 72.9771C56.124 73.9365 53.6483 76.0198 51.205 77.8601C47.2723 80.8217 43.5438 84.0509 39.5937 86.9782C39.7157 82.2695 39.9448 77.5558 40.1316 72.8495C40.2362 70.2559 40.4504 67.5985 40.3184 64.9975C40.2795 63.6352 39.8541 62.3109 39.0905 61.1746C37.098 58.2472 27.7383 51.7104 24.3236 49.3377C22.9214 48.3562 21.3797 47.4924 20.1045 46.3588C21.8479 45.8803 23.686 45.5564 25.4618 45.1638C28.5701 44.4784 31.6751 43.7758 34.7768 43.0561C37.7008 42.3984 40.9785 41.9151 43.6285 40.4796C44.6938 39.8958 45.5878 39.0505 46.2237 38.0259C47.3196 36.3401 47.9672 34.2741 48.7143 32.4117C50.9208 26.9824 52.8248 21.4385 54.4179 15.8047Z" fill="#FEFEFE"/>
<path d="M69.5906 66.0088C69.9418 66.0579 71.2693 67.5178 72.1385 67.8025C73.085 68.1141 74.1061 68.0773 75.0899 68.0675C75.2742 68.5361 75.6603 69.2428 75.5308 69.7409C75.2369 69.8636 75.1397 69.7753 74.8409 69.6772C72.5993 68.73 70.288 67.8884 68.0439 66.9167C68.5744 66.6468 69.0825 66.318 69.5906 66.0088Z" fill="#FCDA3D"/>
<path d="M55.8646 31.543C56.7861 32.1171 59.466 36.1609 60.3129 37.2798C59.1059 36.9523 57.8554 36.8075 56.6043 36.8504C55.1672 37.0467 54.2332 37.6086 53.1797 38.5509C53.9508 36.1707 54.847 33.8315 55.8646 31.543Z" fill="#FCDA3D"/>
<path d="M135.012 42.3739C135.739 42.2881 136.352 42.2095 137.02 42.5727C137.097 42.6147 137.171 42.6606 137.244 42.7101C137.316 42.7589 137.386 42.8113 137.453 42.8671C137.52 42.9236 137.582 42.9825 137.645 43.0438C137.707 43.1051 137.762 43.1714 137.817 43.2401C137.871 43.3078 137.922 43.3783 137.968 43.4511C138.016 43.5247 138.058 43.6008 138.098 43.6769C138.138 43.7529 138.173 43.8339 138.205 43.9222C138.237 44.0106 138.262 44.0867 138.285 44.1676C138.375 44.4733 138.402 44.7938 138.364 45.11C138.326 45.4261 138.223 45.7315 138.063 46.0079C137.891 46.2903 137.664 46.5358 137.394 46.7297C137.124 46.9236 136.817 47.062 136.492 47.1367C136.205 47.3182 135.473 47.2937 135.139 47.2152C134.889 47.1492 134.656 47.0346 134.452 46.8783C134.248 46.722 134.077 46.527 133.951 46.3048C133.897 46.2203 133.848 46.1327 133.804 46.0423C133.759 45.9521 133.719 45.8595 133.685 45.765C133.648 45.6714 133.617 45.5755 133.592 45.4779C133.568 45.3822 133.548 45.2841 133.53 45.1835C133.513 45.0829 133.505 44.9847 133.5 44.8841C133.495 44.7835 133.5 44.6854 133.5 44.5848C133.5 44.4842 133.515 44.3836 133.53 44.2854C133.546 44.1862 133.566 44.088 133.592 43.991C133.804 43.164 134.297 42.7813 135.012 42.3739Z" fill="#2B2A2A"/>
<path d="M149.202 55.0079C150.614 54.8828 151.854 55.5428 153.236 55.6361C153.576 55.6694 153.918 55.6327 154.243 55.5284C154.567 55.424 154.865 55.2543 155.119 55.03C155.333 55.4913 155.57 55.96 155.742 56.436C155.799 56.5699 155.826 56.7145 155.822 56.8598C155.817 57.005 155.78 57.1476 155.715 57.2776C154.918 57.8199 153.827 57.2776 152.915 57.3144C152.451 57.3654 151.994 57.4708 151.555 57.6285C150.918 58.2801 150.222 58.8731 149.475 59.4001C149.229 59.5427 148.955 59.6325 148.671 59.6637C148.387 59.695 148.099 59.6671 147.827 59.5817C146.424 59.0713 146.698 57.7144 146.178 56.6519L146.146 56.5857C147.603 55.6532 147.269 55.4275 149.202 55.0079Z" fill="#FCDA3D"/>
<path d="M60.6768 62.2441C60.7632 62.2699 60.8467 62.3045 60.9258 62.3472C61.2372 62.9606 61.3243 63.7115 61.4613 64.3814C60.9308 64.2587 60.3729 64.1065 59.835 64.2587C58.5722 64.6169 57.2372 65.8242 56.2036 66.6069L50.1887 71.1684C49.1203 71.9855 48.0393 72.9621 46.8687 73.6222L46.7044 73.5314L46.667 72.972C46.7044 70.5967 46.9684 68.2092 47.2149 65.8561C48.2431 66.754 49.4706 67.4019 50.799 67.7479C52.0268 68.0374 53.4988 68.0325 54.5972 67.3504C56.2036 66.3689 56.3406 64.4378 56.6918 62.7889C58.0291 62.6782 59.3594 62.4963 60.6768 62.2441Z" fill="#FCDA3D"/>
<path d="M65.8418 42.3955C70.8056 42.3955 75.752 42.3955 80.7133 42.5501C79.8342 44.0911 78.1331 45.3719 76.9002 46.6626C76.8602 46.7083 76.8104 46.7448 76.7545 46.7694C76.6985 46.794 76.6377 46.8061 76.5764 46.8049C75.082 46.7411 73.9812 46.2651 72.4195 46.7583C70.7458 47.2883 70.0012 48.5373 69.2465 49.985C68.1282 47.4306 67.0996 44.8934 65.8418 42.3955Z" fill="#FCDA3D"/>
<path d="M134.838 49.1655C134.955 49.1484 135.07 49.1361 135.187 49.1263C135.909 49.0747 137.179 49.1925 137.742 49.7152C138.039 50.0598 138.214 50.4906 138.24 50.942C138.41 52.7431 138.028 54.7282 137.976 56.5538C137.916 58.6689 138.133 60.6614 138.275 62.7642C138.322 63.4267 138.412 64.6143 137.889 65.1296C137.523 65.4879 136.91 65.4535 136.432 65.4658C135.598 65.4658 134.439 65.4339 133.777 64.8573C133 64.1825 133.082 61.8588 133.03 60.8527C132.853 57.6727 132.557 51.6733 134.838 49.1655Z" fill="#2B2A2A"/>
<path d="M49.8023 44.1328C49.9268 44.6972 49.0551 46.4271 48.806 47.0896C47.7322 50.0765 46.866 53.1319 46.2133 56.2347C43.7227 54.7208 41.3416 52.986 38.9332 51.364C37.3292 50.1666 35.6032 49.082 33.9395 47.968C39.2096 46.616 44.5147 45.4554 49.8023 44.1328Z" fill="#FCDA3D"/>
<path d="M98.7456 42.2167C99.182 42.1847 99.6208 42.2094 100.051 42.2903C100.224 42.3232 100.389 42.3909 100.535 42.4893C100.68 42.5876 100.804 42.7145 100.898 42.862C101.473 43.9024 100.962 46.4298 100.898 47.6738C100.684 51.3012 100.767 54.9396 101.147 58.5538C101.321 60.0947 102.277 63.4883 101.807 64.8182C101.353 65.4022 100.84 65.4537 100.15 65.5715C99.5893 65.5545 99.0366 65.4329 98.5214 65.2133C97.8888 64.8845 97.5401 64.2759 97.3359 63.6257C96.2724 60.2321 95.7992 45.6716 97.5053 42.8841C97.7718 42.4351 98.2699 42.3394 98.7456 42.2167Z" fill="#2B2A2A"/>
<path d="M148.082 48.0934C148.813 48.0243 149.548 48.003 150.282 48.0296C151.527 48.0664 153.607 48.275 154.473 49.2565C154.84 49.6687 154.802 50.2724 154.752 50.7827C154.683 51.5189 154.456 52.4758 153.823 52.9543C153.111 53.4917 151.201 52.5789 150.337 52.4636C148.767 52.2722 146.715 52.9543 145.5 53.9211C145.075 54.2411 144.721 54.6435 144.46 55.1035C144.199 55.5636 144.037 56.0714 143.983 56.5957C143.866 57.9354 144.329 59.6113 145.228 60.6296C146.129 61.57 147.369 62.1235 148.68 62.1706C150.745 62.2638 150.969 61.2725 152.274 60.1487C152.442 60.0023 152.641 59.8937 152.856 59.8306C153.071 59.7674 153.297 59.7512 153.52 59.7831C153.985 59.815 154.887 60.0481 155.178 60.426C155.203 60.4579 155.226 60.4922 155.248 60.5241C155.305 60.5474 155.36 60.5771 155.41 60.6125C155.523 60.6743 155.618 60.7626 155.688 60.8697C155.757 60.9768 155.799 61.0992 155.808 61.2259C155.858 61.6185 155.577 62.0676 155.355 62.3767C154.178 63.9942 152.412 65.1003 150.426 65.4635C148.234 65.812 145.328 64.9458 143.587 63.687C141.437 62.1338 139.966 59.577 139.574 56.9907C139.286 55.0915 139.634 53.2267 140.82 51.671C142.561 49.3767 145.343 48.5081 148.082 48.0934Z" fill="#2B2A2A"/>
<path d="M163.126 49.284C165.009 49.0828 166.912 49.284 168.551 50.2852C169.106 50.6213 169.689 51.0875 169.821 51.7574C169.862 52.0163 169.849 52.2808 169.781 52.5343C169.713 52.7877 169.593 53.0245 169.427 53.2297C168.802 53.6247 165.482 52.6678 164.506 52.604C163.988 52.5721 163.557 52.5696 163.159 52.918V53.1634C163.868 54.8295 167.734 55.8061 169.31 57.3692C169.703 57.7487 170.014 58.2026 170.224 58.7036C170.434 59.2045 170.54 59.7422 170.533 60.2842C170.502 60.8681 170.354 61.4402 170.098 61.9675C169.841 62.4947 169.482 62.9668 169.039 63.3563C167.236 65.0445 164.885 65.2457 162.528 65.1696H162.451C160.882 64.9439 157.883 63.9624 157.009 62.5858C156.638 62.0018 156.693 60.7578 156.827 60.11C156.842 59.9606 156.892 59.8165 156.972 59.6889C157.052 59.5612 157.161 59.4535 157.291 59.3739C158.005 59.5358 158.601 60.2253 159.226 60.6007C159.949 61.0149 160.741 61.3014 161.565 61.4473C162.329 61.5921 163.465 61.754 164.15 61.2952C164.227 61.143 164.297 61.0743 164.269 60.9001C164.12 59.9333 161.45 58.7433 160.618 58.201C159.353 57.3593 157.976 56.3999 157.684 54.8197C157.485 53.7299 157.733 52.6069 158.372 51.6961C159.477 50.1159 161.33 49.5834 163.126 49.284Z" fill="#2B2A2A"/>
<path d="M125.13 43.2055C125.775 43.1392 126.564 43.0362 127.184 43.2717C127.362 43.3324 127.524 43.4293 127.661 43.5562C127.798 43.683 127.906 43.837 127.979 44.0078C128.335 44.8642 128.039 48.3289 127.667 49.1607C128.758 49.1951 130.011 49.2908 130.958 49.8649C131.265 50.0514 131.528 50.2994 131.732 50.5928C131.935 50.8861 132.074 51.2183 132.138 51.5678C132.283 52.2426 132.258 53.2266 131.809 53.8008C131.097 54.7087 129.291 53.4327 128.103 53.6462C126.915 53.8597 128.95 62.1582 129.022 63.9519C129.059 64.2935 128.983 64.6377 128.806 64.9334C128.502 65.3751 128.031 65.4463 127.538 65.5322C126.776 65.6009 125.795 65.6278 125.08 65.3604C124.477 65.1377 123.982 64.6997 123.692 64.1335C122.661 62.1705 122.736 57.9476 122.631 55.6705C122.599 54.9663 122.666 54.0633 122.362 53.4253C121.638 53.5235 120.146 53.9504 119.508 53.5701C119.391 53.4926 119.291 53.393 119.213 53.2772C119.135 53.1614 119.082 53.0317 119.055 52.8953C118.876 52.1788 118.913 51.0305 119.331 50.3925C119.902 49.5239 121.528 49.411 122.48 49.2172C123.254 48.113 122.676 45.6494 123.548 44.2287C123.951 43.5564 124.395 43.387 125.13 43.2055Z" fill="#2B2A2A"/>
<path d="M111.131 48.432C112.994 48.3094 114.698 48.6921 116.192 49.8454C117.687 50.9987 118.397 52.6427 118.603 54.4585C118.686 55.1946 118.633 55.9724 118.148 56.5589C117.854 56.8958 117.466 57.1393 117.032 57.2582C114.932 57.928 109.455 58.2961 106.93 58.5783C107.343 59.6751 107.886 60.4628 108.922 61.0885C110.305 61.9277 112.678 62.3767 114.118 61.4099C114.838 60.9192 115.42 60.0236 116.317 59.8493C117.174 59.6825 117.841 60.188 118.509 60.6272C118.641 60.7666 118.737 60.9348 118.79 61.1179C118.877 61.5473 118.621 62.0111 118.372 62.3448C117.209 63.9373 115.674 65.0611 113.682 65.358C113.525 65.3825 113.366 65.3997 113.209 65.4169C113.052 65.4341 112.89 65.4439 112.73 65.4513C112.571 65.4586 112.414 65.4513 112.255 65.4513C112.095 65.4513 111.936 65.4513 111.777 65.4513C111.617 65.4513 111.46 65.4341 111.301 65.4169C111.141 65.3997 110.985 65.385 110.828 65.3605C110.671 65.3359 110.511 65.3114 110.357 65.2819C110.202 65.2525 110.046 65.2181 109.891 65.1789C109.737 65.1396 109.582 65.1004 109.43 65.0537C109.278 65.0071 109.127 64.9605 108.977 64.909C108.828 64.8574 108.678 64.7985 108.531 64.7397C108.384 64.6808 108.237 64.617 108.093 64.5507C107.948 64.4845 107.806 64.4133 107.667 64.3397C107.528 64.2661 107.388 64.19 107.251 64.1091C107.114 64.0281 106.98 63.9447 106.845 63.8637C106.711 63.7827 106.584 63.687 106.454 63.5938C105.381 62.7783 104.484 61.7614 103.812 60.6019C103.141 59.4424 102.71 58.1633 102.544 56.8386C102.404 55.9488 102.45 55.0402 102.68 54.1687C102.91 53.2973 103.319 52.4815 103.881 51.7716C105.677 49.5436 108.384 48.7707 111.131 48.432Z" fill="#2B2A2A"/>
<path d="M111.453 52.7208C112.078 52.6619 112.758 52.5908 113.376 52.7527C114.32 52.9981 114.808 53.6287 115.276 54.4286C113.702 54.6985 112.068 54.8139 110.479 54.9955C109.378 55.2408 108.128 55.2776 106.992 55.4077C107.168 55.0051 107.383 54.6205 107.635 54.2593C108.581 53.0447 110.031 52.9049 111.453 52.7208Z" fill="#FEFEFE"/>
<path d="M88.8782 43.1863C89.1917 43.1516 89.5068 43.1327 89.8222 43.1299C90.3776 43.1299 90.8708 43.2035 91.2742 43.6206C92.2281 44.6144 91.4536 47.819 91.4162 49.1661C92.5245 49.225 93.7923 49.3256 94.7138 49.9881C94.9993 50.1971 95.2388 50.461 95.4178 50.7638C95.5967 51.0666 95.7114 51.4021 95.7549 51.7499C95.852 52.3879 95.8072 53.4479 95.3464 53.9583C94.8308 54.5325 92.5021 53.5632 91.6877 53.6148C91.5283 53.6148 91.5283 53.6835 91.4386 53.7988C91.4023 56.1072 91.5849 58.414 91.9841 60.6889C92.1684 61.7391 92.5644 62.809 92.6341 63.8788C92.6628 64.0909 92.6442 64.3065 92.5797 64.5107C92.5152 64.715 92.4063 64.9029 92.2605 65.0615C91.8545 65.4762 91.2369 65.6013 90.674 65.6234C89.6777 65.6627 88.4648 65.486 87.7076 64.7793C86.1186 63.2924 86.2133 55.671 86.1286 53.4209C85.2843 53.524 83.7202 53.9117 82.9605 53.5878C82.5844 53.4234 81.9643 54.4073 81.4113 54.4883C80.2084 54.6601 78.9904 54.2135 77.7451 54.4171C74.7863 56.4808 77.8273 63.0225 76.719 64.8112C76.4809 65.175 76.1068 65.4316 75.6779 65.5253C75.0361 65.6755 74.37 65.6962 73.7198 65.5862C73.0696 65.4761 72.4488 65.2375 71.8946 64.8848C71.4257 63.9834 71.1301 63.0042 71.0229 61.9968C70.6419 59.359 70.3679 52.0149 72.0192 49.9194C72.2415 49.6487 72.5187 49.4266 72.833 49.2673C73.1474 49.108 73.492 49.0151 73.8448 48.9943C74.4949 48.9355 75.6132 48.9011 76.1362 49.36C76.6592 49.8188 76.5795 50.4543 76.5945 51.0408C77.9095 50.2801 79.6081 49.7378 81.0776 50.4396C81.5409 50.6629 82.0041 50.9843 82.5246 51.0359C82.8758 50.8101 82.8086 50.5157 83.0228 50.1942C83.4761 49.5023 85.491 49.3379 86.2457 49.2127C86.4374 47.5884 86.3503 45.3653 87.3166 43.9912C87.7126 43.4072 88.2132 43.3041 88.8782 43.1863Z" fill="#2B2A2A"/>
<path d="M56.3676 39.3628C57.5983 39.2141 58.8472 39.3519 60.0139 39.7652C62.8034 40.8571 64.3351 44.5083 65.4559 47.0258C66.8482 50.1544 70.5791 59.7853 69.3587 62.7078C68.9254 63.7457 67.8096 64.3248 66.8058 64.7174C66.1608 64.9628 65.4385 65.2376 64.7635 64.9137C63.3862 64.2536 63.0201 60.6245 62.5743 59.2234L61.4186 59.5302C59.1771 60.1338 56.9355 60.3006 54.6292 60.3767C54.4399 61.5864 54.3801 63.1494 53.9417 64.288C53.864 64.5299 53.735 64.7528 53.5633 64.9419C53.3915 65.1309 53.1809 65.2819 52.9455 65.3848C52.2232 65.6645 51.2917 65.3848 50.6093 65.1222C49.7201 64.7714 48.684 64.1407 48.3005 63.2255C46.8061 59.6749 50.4026 49.3348 51.9243 45.5757C52.8085 43.4065 54.0513 40.3443 56.3676 39.3628Z" fill="#2B2A2A"/>
<path d="M58.0813 47.0576C59.2295 48.4636 61.3639 53.9895 61.9368 55.9058C60.8696 56.1815 59.7819 56.3735 58.684 56.48C57.4163 56.6371 56.1336 56.6837 54.8584 56.7254C55.6607 53.4209 56.7387 50.1873 58.0813 47.0576Z" fill="#FEFEFE"/>
</g>
<defs>
<clipPath id="clip0_157_283">
<rect width="200" height="102" fill="white"/>
</clipPath>
</defs>
</svg>
