<svg width="38" height="38" viewBox="0 0 38 38" fill="none" xmlns="http://www.w3.org/2000/svg">
<circle cx="19" cy="19" r="19" fill="#E8EDF1"/>
<circle cx="19" cy="19" r="19" fill="#FF0808"/>
<g clip-path="url(#clip0_157_503)">
<path d="M29.114 13.8793C28.8707 12.9374 28.1564 12.1972 27.2476 11.9451C25.6019 11.4877 18.9998 11.4877 18.9998 11.4877C18.9998 11.4877 12.3979 11.4877 10.7522 11.9451C9.84328 12.1972 9.12904 12.9374 8.88574 13.8793C8.44434 15.5848 8.44434 19.1452 8.44434 19.1452C8.44434 19.1452 8.44434 22.7057 8.88574 24.4112C9.12904 25.3531 9.84328 26.0933 10.7522 26.3453C12.3979 26.8028 18.9998 26.8028 18.9998 26.8028C18.9998 26.8028 25.6019 26.8028 27.2476 26.3453C28.1564 26.0933 28.8707 25.3531 29.114 24.4112C29.5554 22.7057 29.5554 19.1452 29.5554 19.1452C29.5554 19.1452 29.5537 15.5848 29.114 13.8793Z" fill="white"/>
<path d="M16.8887 22.4271L22.5183 19.1454L16.8887 15.8635V22.4271Z" fill="#FF0808"/>
</g>
<defs>
<clipPath id="clip0_157_503">
<rect width="21.1111" height="16.0444" fill="white" transform="translate(8.44434 10.9778)"/>
</clipPath>
</defs>
</svg>
